<svg width="960" height="960" viewBox="0 0 960 960" fill="none" xmlns="http://www.w3.org/2000/svg">
<g clip-path="url(#clip0_172_256)">
<path fill-rule="evenodd" clip-rule="evenodd" d="M465.721 88.28C465.741 88.0175 465.745 87.7539 465.732 87.491C465.897 81.085 468.091 74.57 472.741 70.172C477.6 65.572 485.377 63.854 491.241 67.072C493.976 68.641 496.026 71.176 496.988 74.179C495.328 77.2449 494.895 80.8266 495.775 84.2C496.764 82.7476 497.39 81.0795 497.602 79.3354C497.814 77.5912 497.605 75.8217 496.992 74.175C498.53 71.1381 501.141 68.781 504.319 67.561C507.587 66.4895 511.132 66.6354 514.3 67.9718C517.469 69.3082 520.048 71.745 521.561 74.833C522.872 78.0095 522.992 81.5524 521.9 84.8107C520.808 88.069 518.577 90.8238 515.617 92.569C520.379 92.569 523.892 88.8616 527.393 85.1657C530.963 81.3966 534.523 77.6395 539.385 77.839C544.167 78.039 547.985 82.566 548.576 87.315C549.167 92.064 547.118 96.803 544.266 100.642C537.666 109.504 526.903 114.495 516.022 116.458L515.858 116.491C505.657 118.303 495.208 117.764 484.832 117.229C484.096 117.191 483.36 117.153 482.624 117.116C470.69 116.524 456.936 116.952 449.368 126.198C443.302 133.613 443.456 144.153 443.938 153.718C444.344 161.626 444.768 169.538 445.211 177.453L444.673 177.486C439.112 179.559 433.273 181.468 427.354 180.996C421.435 180.524 415.377 177.102 413.512 171.464C411.647 165.826 415.805 158.533 421.738 158.664C418.286 157.575 415.295 155.369 413.236 152.392C411.177 149.416 410.167 145.838 410.365 142.224C410.564 138.61 411.96 135.165 414.333 132.432C416.706 129.699 419.921 127.834 423.471 127.13C415.585 122.337 412.964 110.63 418.042 102.93C423.12 95.23 434.911 93.037 442.425 98.4C435.515 92.017 437.697 78.668 446.325 74.939C454.683 71.339 465.531 78.504 465.725 87.487C465.721 87.7537 465.721 88.0165 465.721 88.2792V88.28ZM538.107 80.1055C538.743 79.4567 539.785 79.4467 540.434 80.0832C542.769 82.3737 544.249 85.3942 544.63 88.6429C545.011 91.8915 544.269 95.1727 542.527 97.9411C542.043 98.7103 541.027 98.9415 540.258 98.4576C539.489 97.9736 539.257 96.9577 539.741 96.1885C541.083 94.0559 541.655 91.5285 541.362 89.026C541.068 86.5236 539.928 84.1969 538.129 82.4325C537.48 81.7961 537.47 80.7542 538.107 80.1055ZM513.045 71.405C511.421 70.6691 509.648 70.3194 507.866 70.3834C506.958 70.416 506.248 71.1787 506.28 72.0869C506.313 72.9951 507.076 73.7049 507.984 73.6723C509.258 73.6265 510.525 73.8765 511.687 74.4027C512.848 74.9289 513.872 75.7169 514.677 76.705C515.483 77.6931 516.049 78.8545 516.331 80.0979C516.612 81.3414 516.602 82.6332 516.301 83.872C516.086 84.7551 516.628 85.645 517.511 85.8598C518.394 86.0745 519.284 85.5327 519.499 84.6497C519.92 82.9169 519.934 81.1101 519.54 79.3709C519.146 77.6316 518.355 76.0073 517.228 74.6253C516.101 73.2432 514.669 72.141 513.045 71.405Z" fill="#171717"></path>
<path fill-rule="evenodd" clip-rule="evenodd" d="M691.659 416.122C698.449 404.432 702.583 391.39 703.768 377.922C704.368 371.297 704.22 364.626 703.329 358.034C702.208 349.529 699.746 341.255 696.035 333.52C685.308 311.353 665.203 295.394 643.376 283.548L642.345 283.164C635.193 302.545 627.746 322.694 620.364 342.536L622.525 343.336C633.724 347.372 637.299 355.631 635.983 364.581C634.535 374.519 627.055 385.3 617.293 392.112C613.513 394.878 610.203 398.233 607.487 402.049C599.842 412.348 594.194 426.618 593.119 438.398C592.922 440.329 592.87 442.272 592.965 444.211C593.305 450.725 594.951 457.692 599.919 461.925C606.16 467.256 615.472 466.576 623.479 464.744C649.079 458.898 672.76 443.808 687.699 422.308C689.099 420.3 690.419 418.238 691.659 416.122ZM653.494 298.576C652.722 298.095 651.707 298.332 651.227 299.103C650.747 299.875 650.983 300.889 651.754 301.37C668.545 311.821 680.887 328.103 686.415 347.093C691.943 366.082 690.267 386.444 681.709 404.275C681.362 404.997 681.586 405.864 682.239 406.328C682.891 406.792 683.784 406.718 684.352 406.154L685.622 404.892C686.144 404.373 686.245 403.592 685.925 402.971C693.736 385.078 695.049 364.979 689.575 346.173C683.821 326.405 670.973 309.456 653.494 298.576Z" fill="#171717"></path>
<path fill-rule="evenodd" clip-rule="evenodd" d="M603.878 339.478L628.217 276.146L627.745 275.973C592.712 259.957 555.199 251.457 516.899 248.157C489.055 245.905 461.074 245.923 433.232 248.212C426.706 248.713 420.202 249.309 413.72 250C381.144 253.455 347.953 259.367 319.765 276.05C291.577 292.733 269.048 322.161 268.565 354.912V354.923C330.797 340.169 403.023 331.723 480.065 331.723C521.216 331.612 562.331 334.11 603.165 339.203L603.878 339.478ZM534.08 254.131C533.178 254.022 532.358 254.664 532.248 255.566C532.139 256.468 532.781 257.289 533.683 257.398C562.348 260.881 590.24 269.074 616.234 281.646C617.052 282.042 618.036 281.699 618.432 280.881C618.828 280.063 618.485 279.079 617.667 278.683C591.347 265.953 563.104 257.658 534.08 254.131Z" fill="#171717"></path>
<path d="M622.525 343.339C633.725 347.375 637.299 355.639 635.983 364.584L634.908 364.431C628.591 363.378 619.958 362.051 613.641 360.998L613.509 360.943C615.775 354.855 618.06 348.722 620.364 342.543L622.525 343.339Z" fill="url(#paint0_linear_172_256)"></path>
<path d="M903.567 505.6C903.577 530.548 901.297 555.445 896.756 579.977C860.933 695.061 688 782.325 480.068 782.325C272.136 782.325 99.1917 695.061 63.3687 579.981C58.8266 555.448 56.5466 530.55 56.5577 505.6C56.5577 441.194 141.837 384.97 268.565 354.917C330.8 340.165 403.026 331.717 480.065 331.717C521.215 331.606 562.331 334.104 603.165 339.197L603.878 339.472L596.189 359.478L595.805 359.324C558.133 355.284 520.269 353.307 482.382 353.4C260.251 353.4 80.1727 419.955 80.1727 502.054C80.1727 525.142 94.4207 547.013 119.834 566.504C184.789 616.322 322.727 650.704 482.382 650.704C655.935 650.704 803.81 610.077 860.198 553.162C875.982 537.225 884.598 520.016 884.598 502.05C884.598 450.18 812.722 404.519 703.763 377.921C704.363 371.297 704.215 364.626 703.324 358.035L703.872 357.958C823.783 388.66 903.567 443.3 903.567 505.6Z" fill="url(#paint1_linear_172_256)"></path>
<path d="M867.9 671.292C816.84 775.941 662.362 852.007 479.717 852.007C299.979 852.007 147.517 778.343 94.059 676.261C90.8343 669.285 87.801 662.206 84.959 655.026L85.65 654.752C92.56 650.277 102.136 656.079 105.437 663.625C108.738 671.171 108.113 679.76 109.408 687.876C110.703 695.992 115.232 704.844 123.315 706.376C128.756 707.396 134.295 704.786 139.815 705.235C151.606 706.19 157.649 719.626 160.457 731.121C163.265 742.616 166.874 756.172 178.007 760.176C194.459 766.076 212.02 745.39 228.318 751.686C247.59 759.145 242.676 795.086 262.704 800.155C279.464 804.4 291.365 781.136 308.563 779.392C323.842 777.857 334.832 793.355 341.633 807.131C348.434 820.907 357.339 837.009 372.651 838.205C386.46 839.291 397.396 827.467 406.763 817.266C416.13 807.065 429.456 796.689 442.487 801.384C460.287 807.8 461.879 837.075 480.229 841.715C493.698 845.115 505.489 832.534 513.342 821.072C521.195 809.61 531.593 796.415 545.403 797.918C564.246 799.969 572.209 828.048 591.141 829.145C618.496 830.735 621.687 778.01 649.086 777.297C667.327 776.837 679.414 801.658 697.545 799.673C724.22 796.755 720.512 744.414 747.253 742.264C760.602 741.19 772.437 755.141 785.489 752.136C807.089 747.145 798.059 708.822 816.825 697.02C825.403 691.62 837.04 693.938 845.979 689.167C856.849 683.367 859.997 669.632 862.979 657.688C865.961 645.744 871.907 632.109 884.017 629.905L884.148 629.949C879.617 644.069 874.312 657.928 868.255 671.464L867.9 671.292Z" fill="#171717"></path>
<path d="M867.9 671.292L868.251 671.468C802.858 817.668 653.651 919.813 480.07 919.813C308.382 919.813 160.551 819.892 94.0605 676.261C147.521 778.343 299.981 852.007 479.719 852.007C662.362 852.007 816.84 775.941 867.9 671.292Z" fill="url(#paint2_linear_172_256)"></path>
<path d="M884.6 502.051C884.6 520.017 875.979 537.226 860.2 553.163L858.917 551.255C850.811 507.743 817.128 472.348 777.992 451.695C750.012 436.931 719.334 428.595 688.14 422.618L687.701 422.311C689.105 420.303 690.425 418.241 691.661 416.125C698.452 404.434 702.586 391.392 703.77 377.925C812.727 404.52 884.6 450.181 884.6 502.051Z" fill="#171717"></path>
<path d="M678.266 145.908L690.66 151.327C690.66 151.327 668.515 212.227 642.345 283.166C635.193 302.547 627.745 322.696 620.364 342.538C618.072 348.713 615.787 354.846 613.509 360.938C608.749 373.705 604.065 386.22 599.557 398.175L599.524 398.241C593.65 395.373 587.554 392.985 581.295 391.101L584.202 390.684L596.19 359.479L603.879 339.473L628.218 276.141L678.266 145.908Z" fill="url(#paint3_linear_172_256)"></path>
<path d="M634.907 364.431L635.982 364.584C634.534 374.522 627.054 385.303 617.292 392.115C613.513 394.881 610.202 398.236 607.486 402.052L607.3 401.921C606.379 401.613 603.45 400.111 599.523 398.246L599.556 398.18C604.064 386.225 608.748 373.71 613.508 360.943L613.64 360.998C619.957 362.051 628.59 363.378 634.907 364.431Z" fill="#171717"></path>
<path d="M596.19 359.484L584.2 390.689L581.293 391.106C574.262 389.186 567.857 388.857 565.148 392.696C563.048 395.658 564.764 400.319 567.802 402.304C566.096 402.028 564.349 402.162 562.705 402.694C561.061 403.226 559.567 404.142 558.347 405.365L557.766 404.301C461.573 394.308 364.566 392.762 269.485 409.05C228.792 416.015 187.101 426.983 155.513 453.57C123.925 480.157 105.387 526.082 121.522 564.077L119.832 566.501C94.4189 547.01 80.1709 525.139 80.1709 502.051C80.1709 419.951 260.249 353.397 482.38 353.397C520.268 353.307 558.132 355.287 595.804 359.33L596.19 359.484Z" fill="#171717"></path>
<path d="M584.684 437.348V437.568C567.968 480.673 555.311 511.121 552.843 511.341L552.832 512.416C548.786 512.33 544.758 511.864 540.8 511.023L541.228 509.023L567.212 440.175L567.179 439.747C570.42 439.478 573.64 439.002 576.82 438.321C579.411 437.789 582.041 437.464 584.684 437.348Z" fill="url(#paint4_linear_172_256)"></path>
<path d="M517.975 238.207C518.348 241.432 517.635 244.678 516.922 247.848L516.9 248.155C489.056 245.903 461.074 245.921 433.233 248.21L433.133 246.894C429.601 244.481 430.588 238.547 433.944 235.871C437.3 233.195 441.874 232.854 446.152 232.635L448.587 232.503C462.758 231.77 476.933 231.031 491.111 230.288C496.058 230.035 501.001 229.779 505.94 229.52C508.321 229.399 510.821 229.301 512.982 230.32C515.913 231.714 517.6 234.982 517.975 238.207Z" fill="url(#paint5_linear_172_256)"></path>
<path d="M483.786 172.693C484.949 175.161 489.073 174.36 490.345 171.947C491.617 169.534 490.971 166.605 490.28 163.962C488.338 156.394 486.389 148.822 484.433 141.247C483.533 137.781 482.657 134.008 484.017 130.695C485.651 126.747 490.137 124.595 494.404 124.454C498.671 124.313 502.795 125.803 506.798 127.262" stroke="#171717" stroke-width="3.291" stroke-linecap="round" stroke-linejoin="round"></path>
<path d="M494.689 136.607C494.68 137.453 494.858 138.291 495.211 139.06C495.565 139.829 496.084 140.511 496.732 141.055C497.38 141.599 498.141 141.993 498.96 142.208C499.778 142.424 500.634 142.455 501.466 142.299C502.299 142.144 503.086 141.806 503.772 141.31C504.457 140.814 505.025 140.172 505.433 139.431C505.841 138.689 506.08 137.866 506.132 137.022C506.184 136.177 506.048 135.331 505.734 134.545" stroke="#171717" stroke-width="3.291" stroke-linecap="round" stroke-linejoin="round"></path>
<path d="M459.907 135.828C459.625 136.602 459.525 137.43 459.615 138.249C459.705 139.068 459.982 139.855 460.424 140.55C460.867 141.244 461.464 141.827 462.169 142.254C462.873 142.681 463.667 142.94 464.488 143.01C465.308 143.081 466.134 142.962 466.902 142.662C467.669 142.362 468.357 141.889 468.912 141.281C469.467 140.672 469.874 139.944 470.103 139.152C470.331 138.361 470.374 137.527 470.228 136.717" stroke="#171717" stroke-width="3.291" stroke-linecap="round" stroke-linejoin="round"></path>
<path d="M456.344 181.5C456.716 189.112 465.206 195.177 472.522 193.049" stroke="#171717" stroke-width="3.291" stroke-linecap="round" stroke-linejoin="round"></path>
<path d="M465.721 88.3788V88.2788C465.741 88.0163 465.745 87.7528 465.732 87.4898C465.532 78.5068 454.687 71.3438 446.332 74.9418C437.7 78.6708 435.518 92.0198 442.432 98.4028C434.918 93.0398 423.127 95.2218 418.049 102.933C412.971 110.644 415.592 122.333 423.478 127.133C419.928 127.837 416.712 129.702 414.34 132.435C411.967 135.168 410.571 138.613 410.372 142.227C410.174 145.841 411.184 149.418 413.243 152.395C415.302 155.372 418.293 157.578 421.745 158.667C415.812 158.536 411.655 165.83 413.519 171.467C415.383 177.104 421.449 180.527 427.361 180.999C433.273 181.471 439.119 179.562 444.68 177.489" stroke="#171717" stroke-width="3.291" stroke-linecap="round" stroke-linejoin="round"></path>
<path d="M496.992 74.1748C496.03 71.1718 493.98 68.6369 491.245 67.0678C485.377 63.8538 477.6 65.5758 472.745 70.1678C468.095 74.5678 465.901 81.0808 465.736 87.4868C465.725 87.7498 465.725 88.0128 465.725 88.2758" stroke="#171717" stroke-width="3.291" stroke-linecap="round" stroke-linejoin="round"></path>
<path d="M496.992 74.1748C495.33 77.2413 494.895 80.8247 495.775 84.1998C496.764 82.7474 497.39 81.0794 497.602 79.3352C497.814 77.5911 497.605 75.8215 496.992 74.1748V74.1748Z" stroke="#171717" stroke-width="3.291" stroke-linecap="round" stroke-linejoin="round"></path>
<path d="M515.617 92.5687C518.577 90.8235 520.808 88.0687 521.9 84.8104C522.992 81.5522 522.872 78.0093 521.561 74.8327C520.048 71.7447 517.469 69.3079 514.3 67.9715C511.132 66.6351 507.587 66.4892 504.319 67.5607C501.141 68.7807 498.53 71.1379 496.992 74.1747" stroke="#171717" stroke-width="3.291" stroke-linecap="round" stroke-linejoin="round"></path>
<path d="M448.556 231.834C447.339 213.715 446.224 195.588 445.211 177.453C444.761 169.545 444.336 161.633 443.938 153.718C443.456 144.153 443.302 133.618 449.368 126.198C456.936 116.952 470.69 116.524 482.624 117.116C493.724 117.676 504.932 118.432 515.857 116.491L516.021 116.458C526.902 114.495 537.663 109.504 544.266 100.642C547.118 96.8027 549.158 92.0647 548.576 87.3147C547.994 82.5647 544.167 78.0357 539.385 77.8387C529.755 77.4437 525.236 92.5687 515.617 92.5687H515.606" stroke="#171717" stroke-width="3.291" stroke-linecap="round" stroke-linejoin="round"></path>
<path d="M491.058 229.312C486.958 225.736 485.858 216.852 488.547 212.112C491.236 207.372 495.928 204.193 500.568 201.352C505.208 198.511 510.068 195.714 513.401 191.415C518.337 185.042 519.115 176.454 519.346 168.392C519.84 151.037 518.731 133.674 516.033 116.523" stroke="#171717" stroke-width="3.291" stroke-linecap="round" stroke-linejoin="round"></path>
<path d="M433.135 246.894C429.603 244.481 430.59 238.547 433.946 235.871C437.302 233.195 441.876 232.854 446.154 232.635L448.589 232.503C462.76 231.77 476.935 231.031 491.113 230.288C496.06 230.035 501.003 229.779 505.942 229.52C508.323 229.399 510.823 229.301 512.984 230.32C515.913 231.713 517.602 234.981 517.975 238.206C518.348 241.431 517.635 244.677 516.922 247.847" stroke="#171717" stroke-width="3.291" stroke-linecap="round" stroke-linejoin="round"></path>
<path d="M703.625 377.889L703.768 377.922C812.727 404.52 884.6 450.181 884.6 502.051C884.6 520.017 875.979 537.226 860.2 553.163C803.812 610.078 655.937 650.705 482.384 650.705C322.729 650.705 184.791 616.319 119.836 566.505C94.4228 547.014 80.1748 525.143 80.1748 502.055C80.1748 419.955 260.253 353.401 482.384 353.401C520.272 353.311 558.136 355.291 595.808 359.334" stroke="#171717" stroke-width="3.291" stroke-linecap="round" stroke-linejoin="round"></path>
<path d="M903.567 505.6C903.578 530.549 901.298 555.445 896.756 579.977C890.9 611.492 881.331 642.201 868.249 671.464C802.856 817.664 653.649 919.809 480.068 919.809C308.38 919.809 160.549 819.888 94.0588 676.257C90.8341 669.281 87.8008 662.203 84.9588 655.022C66.1469 607.453 56.5102 556.753 56.5578 505.6" stroke="#171717" stroke-width="3.291" stroke-linecap="round" stroke-linejoin="round"></path>
<path d="M703.877 357.959C823.783 388.659 903.567 443.304 903.567 505.604" stroke="#171717" stroke-width="3.291" stroke-linecap="round" stroke-linejoin="round"></path>
<path d="M56.5576 505.6C56.5576 441.194 141.837 384.97 268.565 354.917C330.8 340.165 403.026 331.717 480.065 331.717C521.215 331.606 562.331 334.104 603.165 339.197" stroke="#171717" stroke-width="3.291" stroke-linecap="round" stroke-linejoin="round"></path>
<path d="M688.138 422.618C719.332 428.596 750.01 436.931 777.99 451.695C817.126 472.348 850.809 507.743 858.915 551.255" stroke="#171717" stroke-width="3.291" stroke-linecap="round" stroke-linejoin="round"></path>
<path d="M121.524 564.077C105.389 526.077 123.937 480.158 155.515 453.57C187.093 426.982 228.794 416.015 269.487 409.05C364.571 392.762 461.575 394.308 557.768 404.301" stroke="#171717" stroke-width="3.291" stroke-linecap="round" stroke-linejoin="round"></path>
<path d="M903.567 535.7C903.552 550.719 901.255 565.649 896.756 579.979C860.933 695.061 688 782.325 480.068 782.325C272.136 782.325 99.1916 695.061 63.3686 579.981C58.8686 565.651 56.5721 550.72 56.5576 535.7" stroke="#171717" stroke-width="3.291" stroke-linecap="round" stroke-linejoin="round"></path>
<path d="M867.952 671.172C867.929 671.21 867.911 671.25 867.897 671.292C816.839 775.941 662.361 852.007 479.716 852.007C299.978 852.007 147.516 778.343 94.0585 676.261C93.3125 674.846 92.5995 673.431 91.8975 672.016" stroke="#171717" stroke-width="3.291" stroke-linecap="round" stroke-linejoin="round"></path>
<path d="M85.6455 654.752C92.5555 650.277 102.132 656.079 105.433 663.625C108.734 671.171 108.109 679.76 109.404 687.876C110.699 695.992 115.228 704.844 123.311 706.376C128.752 707.396 134.291 704.786 139.811 705.235C151.602 706.19 157.645 719.626 160.453 731.121C163.261 742.616 166.87 756.172 178.003 760.176C194.455 766.076 212.016 745.39 228.314 751.686C247.586 759.145 242.672 795.086 262.7 800.155C279.46 804.4 291.361 781.136 308.559 779.392C323.838 777.857 334.828 793.355 341.629 807.131C348.43 820.907 357.335 837.009 372.647 838.205C386.456 839.291 397.392 827.467 406.759 817.266C416.126 807.065 429.452 796.689 442.483 801.384C460.283 807.8 461.875 837.075 480.225 841.715C493.694 845.115 505.485 832.534 513.338 821.072C521.191 809.61 531.588 796.415 545.398 797.918C564.241 799.969 572.205 828.048 591.137 829.145C618.492 830.735 621.682 778.01 649.081 777.297C667.322 776.837 679.41 801.658 697.541 799.673C724.216 796.755 720.508 744.414 747.249 742.264C760.598 741.19 772.432 755.141 785.484 752.136C807.084 747.145 798.054 708.822 816.82 697.02C825.398 691.62 837.035 693.938 845.974 689.167C856.844 683.367 859.992 669.632 862.974 657.688C865.956 645.744 871.903 632.109 884.013 629.905" stroke="#171717" stroke-width="3.291" stroke-linecap="round" stroke-linejoin="round"></path>
<path d="M120.855 625.137C119.264 621.847 117.673 618.553 116.083 615.255C114.054 611.065 112.029 606.878 110.007 602.696" stroke="#171717" stroke-width="3.291" stroke-linecap="round" stroke-linejoin="round"></path>
<path d="M104.566 621.32C111.013 619.081 116.841 615.354 121.577 610.44" stroke="#171717" stroke-width="3.291" stroke-linecap="round" stroke-linejoin="round"></path>
<path d="M215.292 697.145C213.559 694.645 211.837 692.145 210.104 689.645C207.724 686.201 205.34 682.757 202.953 679.313" stroke="#171717" stroke-width="3.291" stroke-linecap="round" stroke-linejoin="round"></path>
<path d="M200.562 698.713C203.742 695.697 206.922 692.673 210.104 689.642C212.089 687.767 214.064 685.88 216.049 683.994" stroke="#171717" stroke-width="3.291" stroke-linecap="round" stroke-linejoin="round"></path>
<path d="M339.925 732C336.378 725.252 331.952 719.004 326.763 713.42" stroke="#171717" stroke-width="3.291" stroke-linecap="round" stroke-linejoin="round"></path>
<path d="M325.414 732.189C328.387 729.063 331.356 725.929 334.321 722.789C336.745 720.221 339.173 717.658 341.604 715.1" stroke="#171717" stroke-width="3.291" stroke-linecap="round" stroke-linejoin="round"></path>
<path d="M484.839 738.879C482.799 735.886 480.545 733.045 478.094 730.379C475.346 727.356 472.36 724.557 469.166 722.01" stroke="#171717" stroke-width="3.291" stroke-linecap="round" stroke-linejoin="round"></path>
<path d="M468.562 742.159C471.742 738.231 474.92 734.305 478.094 730.379C480.573 727.319 483.048 724.258 485.519 721.198" stroke="#171717" stroke-width="3.291" stroke-linecap="round" stroke-linejoin="round"></path>
<path d="M631.859 721.1C628.985 718.862 626.115 716.62 623.249 714.376L614.891 707.861" stroke="#171717" stroke-width="3.291" stroke-linecap="round" stroke-linejoin="round"></path>
<path d="M617.842 725.015C619.642 721.472 621.444 717.925 623.249 714.376C625.267 710.405 627.282 706.438 629.293 702.476" stroke="#171717" stroke-width="3.291" stroke-linecap="round" stroke-linejoin="round"></path>
<path d="M779.691 666.192C776.784 664.163 773.873 662.127 770.96 660.083C768.711 658.503 766.452 656.935 764.203 655.355" stroke="#171717" stroke-width="3.291" stroke-linecap="round" stroke-linejoin="round"></path>
<path d="M766.736 670.152C768.14 666.795 769.548 663.438 770.959 660.083C772.582 656.189 774.213 652.295 775.851 648.401" stroke="#171717" stroke-width="3.291" stroke-linecap="round" stroke-linejoin="round"></path>
<path d="M871.046 598.089C868.414 597.101 865.78 596.118 863.146 595.139C861.412 594.491 859.687 593.844 857.969 593.198" stroke="#171717" stroke-width="3.291" stroke-linecap="round" stroke-linejoin="round"></path>
<path d="M861.087 604.276C861.767 601.226 862.458 598.188 863.149 595.139C863.73 592.507 864.333 589.863 864.926 587.231" stroke="#171717" stroke-width="3.291" stroke-linecap="round" stroke-linejoin="round"></path>
<path d="M643.376 283.55C665.203 295.396 685.308 311.355 696.035 333.522C699.746 341.256 702.208 349.53 703.329 358.036C704.22 364.627 704.368 371.298 703.768 377.922C702.583 391.389 698.449 404.431 691.659 416.122C690.419 418.238 689.099 420.3 687.699 422.308C672.76 443.808 649.079 458.898 623.479 464.744C615.472 466.576 606.16 467.256 599.919 461.925C594.951 457.692 593.305 450.725 592.965 444.211C592.87 442.272 592.922 440.329 593.119 438.398C594.194 426.618 599.842 412.348 607.487 402.049C610.203 398.233 613.513 394.878 617.293 392.112C627.055 385.3 634.535 374.519 635.983 364.581C637.299 355.631 633.724 347.372 622.525 343.336" stroke="#171717" stroke-width="3.291" stroke-linecap="round" stroke-linejoin="round"></path>
<path d="M268.564 354.91C269.047 322.159 291.576 292.731 319.764 276.048C347.952 259.365 381.143 253.453 413.719 249.998C420.201 249.307 426.705 248.711 433.231 248.21C461.073 245.921 489.054 245.903 516.898 248.155C555.198 251.455 592.711 259.955 627.744 275.971" stroke="#171717" stroke-width="3.291" stroke-linecap="round" stroke-linejoin="round"></path>
<path d="M591.737 438.27C589.458 437.553 587.071 437.241 584.684 437.348C582.041 437.465 579.411 437.792 576.82 438.324C573.64 439.005 570.42 439.481 567.179 439.75C565.401 439.866 563.616 439.777 561.859 439.487C556.901 438.643 551.988 435.275 551.022 430.34C550.056 425.405 554.883 419.788 559.687 421.269C557.788 419.826 556.416 417.799 555.78 415.501C555.144 413.202 555.28 410.759 556.167 408.545C556.683 407.354 557.424 406.275 558.349 405.365C559.569 404.142 561.062 403.226 562.705 402.693C564.348 402.16 566.094 402.025 567.8 402.3C564.762 400.315 563.051 395.654 565.146 392.692C567.855 388.853 574.26 389.182 581.291 391.102C587.55 392.986 593.646 395.374 599.52 398.242C603.447 400.107 606.376 401.609 607.297 401.917" stroke="#171717" stroke-width="3.291" stroke-linecap="round" stroke-linejoin="round"></path>
<path d="M567.211 440.178L541.228 509.026" stroke="#171717" stroke-width="3.291" stroke-linecap="round" stroke-linejoin="round"></path>
<path d="M599.557 398.18C604.065 386.225 608.749 373.71 613.509 360.943C615.776 354.855 618.061 348.722 620.364 342.543C627.746 322.701 635.193 302.552 642.345 283.171C668.515 212.228 690.66 151.332 690.66 151.332L678.266 145.913L628.218 276.146L603.879 339.478L596.19 359.484L584.2 390.689" stroke="#171717" stroke-width="3.291" stroke-linecap="round" stroke-linejoin="round"></path>
<path d="M552.843 511.341C555.311 511.121 567.968 480.673 584.684 437.568" stroke="#171717" stroke-width="3.291" stroke-linecap="round" stroke-linejoin="round"></path>
<path d="M525.487 505.648C530.335 508.1 535.483 509.907 540.799 511.023C544.757 511.864 548.786 512.331 552.831 512.416C561.857 512.641 570.828 510.94 579.144 507.425" stroke="#171717" stroke-width="3.291" stroke-linecap="round" stroke-linejoin="round"></path>
<path d="M499.91 519.754C539.61 536.854 587.481 533.618 624.521 511.33" stroke="#171717" stroke-width="3.291" stroke-linecap="round" stroke-linejoin="round"></path>
<path d="M623.282 497.444C632.649 492.815 643.771 495.502 653.949 497.883C664.127 500.264 675.722 501.952 684.233 495.897" stroke="#171717" stroke-width="3.291" stroke-linecap="round" stroke-linejoin="round"></path>
<path d="M684.266 453.527C686.975 449.927 692.437 449.71 696.605 451.377C700.773 453.044 704.195 456.159 708.089 458.386C711.983 460.613 716.974 461.917 720.9 459.724" stroke="#171717" stroke-width="3.291" stroke-linecap="round" stroke-linejoin="round"></path>
<path d="M505.985 498.672C503.353 494.472 497.375 493.649 492.615 495.053C487.855 496.457 483.774 499.528 479.299 501.667C474.824 503.806 469.285 504.902 465.029 502.347" stroke="#171717" stroke-width="3.291" stroke-linecap="round" stroke-linejoin="round"></path>
<path d="M578.092 588.415C567.519 579.937 553.128 577.096 539.714 578.961C527.945 580.595 516.9 585.553 505.314 588.229C493.728 590.905 480.559 590.929 471.114 583.699" stroke="#171717" stroke-width="3.291" stroke-linecap="round" stroke-linejoin="round"></path>
<path d="M311.473 560.128C306.767 555.072 298.673 555.763 291.905 557.167C285.137 558.571 277.405 560.095 271.855 555.982" stroke="#171717" stroke-width="3.291" stroke-linecap="round" stroke-linejoin="round"></path>
<path d="M271.955 455.6C279.907 444.895 294.736 441.648 308.008 442.832C321.28 444.016 333.992 448.755 347.176 450.741C365.762 453.519 384.755 450.792 401.809 442.898" stroke="#171717" stroke-width="3.291" stroke-linecap="round" stroke-linejoin="round"></path>
<path d="M260.58 510.672C256.138 504.072 247.067 502.105 239.203 503.356C231.339 504.607 224.165 508.401 216.674 511.089C209.183 513.777 200.674 515.3 193.41 512.065" stroke="#171717" stroke-width="3.291" stroke-linecap="round" stroke-linejoin="round"></path>
<path d="M375.463 532.5C383.283 529.012 391.685 525.425 400.12 526.906C404.781 527.729 409.037 530.043 413.6 531.271C417.72 532.349 422.021 532.544 426.221 531.843C430.421 531.142 434.426 529.56 437.972 527.202" stroke="#171717" stroke-width="3.291" stroke-linecap="round" stroke-linejoin="round"></path>
<path d="M613.641 361C619.958 362.053 628.591 363.38 634.908 364.433" stroke="#171717" stroke-width="3.291" stroke-linecap="round" stroke-linejoin="round"></path>
<path d="M218.315 304.447C208.326 295.936 205.908 281.077 208.597 268.232C211.286 255.387 218.186 243.9 224.325 232.302C230.464 220.704 236.055 208.208 235.743 195.089C235.176 171.268 215.843 152.389 208.082 129.863C204.501 119.14 203.545 107.715 205.294 96.5459C207.043 85.3771 211.445 74.7908 218.132 65.6758" stroke="#171717" stroke-width="3.291" stroke-linecap="round" stroke-linejoin="round"></path>
<path d="M319.554 202.141C323.7 198.696 326.838 194.194 328.636 189.112C330.434 184.03 330.825 178.557 329.768 173.271C326.868 159.706 314.949 149.98 309.347 137.29C306.678 131.085 305.55 124.327 306.058 117.592C306.567 110.857 308.697 104.345 312.267 98.6108" stroke="#171717" stroke-width="3.291" stroke-linecap="round" stroke-linejoin="round"></path>
<path d="M588.184 187.292C580.675 179.019 580.42 165.133 587.62 156.592C592.37 150.956 599.448 147.908 605.225 143.331C619.517 132.007 624.441 110.367 616.456 93.9727" stroke="#171717" stroke-width="3.291" stroke-linecap="round" stroke-linejoin="round"></path>
<path d="M754.982 333.167C743.048 314.041 744.182 287.624 757.7 269.586C768.523 255.15 785.963 246.278 795.041 230.686C804.955 213.656 802.782 192.168 797.207 173.267C791.632 154.366 782.955 136.215 780.553 116.657C778.151 97.0987 783.766 74.7427 800.57 64.4507" stroke="#171717" stroke-width="3.291" stroke-linecap="round" stroke-linejoin="round"></path>
<path d="M362.505 219.079C359.707 218.119 357.132 216.601 354.936 214.617C352.741 212.634 350.971 210.225 349.732 207.538" stroke="#171717" stroke-width="3.291" stroke-linecap="round" stroke-linejoin="round"></path>
<path d="M348.238 222.4L360.358 206.709" stroke="#171717" stroke-width="3.291" stroke-linecap="round" stroke-linejoin="round"></path>
<path d="M384.948 179.869L372.634 165.769" stroke="#171717" stroke-width="3.291" stroke-linecap="round" stroke-linejoin="round"></path>
<path d="M371.67 179.2L381.735 166.038" stroke="#171717" stroke-width="3.291" stroke-linecap="round" stroke-linejoin="round"></path>
<path d="M570.707 84.2851L586.851 81.3301" stroke="#171717" stroke-width="3.291" stroke-linecap="round" stroke-linejoin="round"></path>
<path d="M566.7 71.5108C575.191 61.2103 584.554 51.6604 594.684 42.9668" stroke="#171717" stroke-width="3.291" stroke-linecap="round" stroke-linejoin="round"></path>
<path d="M555.1 58.4109L556.5 39.8179" stroke="#171717" stroke-width="3.291" stroke-linecap="round" stroke-linejoin="round"></path>
<path d="M645.75 125.774L640.33 113.386" stroke="#171717" stroke-width="3.291" stroke-linecap="round" stroke-linejoin="round"></path>
<path d="M635.689 125.008L650.399 114.945" stroke="#171717" stroke-width="3.291" stroke-linecap="round" stroke-linejoin="round"></path>
<path d="M690.6 107.985L684.96 91.7998" stroke="#171717" stroke-width="3.291" stroke-linecap="round" stroke-linejoin="round"></path>
<path d="M679.042 104.87C685.454 102.105 691.448 98.4559 696.849 94.0298" stroke="#171717" stroke-width="3.291" stroke-linecap="round" stroke-linejoin="round"></path>
<path d="M499.673 246.319C500.132 241.073 500.454 235.817 500.639 230.552" stroke="#171717" stroke-width="3.291" stroke-linecap="round" stroke-linejoin="round"></path>
<path d="M482.399 245.781L482.821 231.842" stroke="#171717" stroke-width="3.291" stroke-linecap="round" stroke-linejoin="round"></path>
<path d="M461.535 246.293C461.191 241.805 461.367 237.293 462.057 232.846" stroke="#171717" stroke-width="3.291" stroke-linecap="round" stroke-linejoin="round"></path>
<path d="M442.508 247.054C441.894 242.599 441.791 238.089 442.201 233.611" stroke="#171717" stroke-width="3.291" stroke-linecap="round" stroke-linejoin="round"></path>
<path d="M344.057 319.33C341.586 317.611 339.479 315.421 337.857 312.885" stroke="url(#paint6_linear_172_256)" stroke-width="3.291" stroke-linecap="round" stroke-linejoin="round"></path>
<path d="M368.191 291.552L373.831 283.269" stroke="url(#paint7_linear_172_256)" stroke-width="3.291" stroke-linecap="round" stroke-linejoin="round"></path>
<path d="M426.553 311.96C423.981 309.927 422.041 307.203 420.962 304.107" stroke="url(#paint8_linear_172_256)" stroke-width="3.291" stroke-linecap="round" stroke-linejoin="round"></path>
<path d="M457.557 276.194L464.026 267.694" stroke="url(#paint9_linear_172_256)" stroke-width="3.291" stroke-linecap="round" stroke-linejoin="round"></path>
<path d="M507.424 309.779C505.383 307.48 503.703 304.883 502.442 302.079" stroke="url(#paint10_linear_172_256)" stroke-width="3.291" stroke-linecap="round" stroke-linejoin="round"></path>
<path d="M541.664 273.067C543.685 270.778 546.179 268.955 548.975 267.727" stroke="url(#paint11_linear_172_256)" stroke-width="3.291" stroke-linecap="round" stroke-linejoin="round"></path>
<path d="M587.021 318.4C583.94 316.201 581.648 313.069 580.486 309.466" stroke="url(#paint12_linear_172_256)" stroke-width="3.291" stroke-linecap="round" stroke-linejoin="round"></path>
<path d="M661.233 325.14C663.188 322.903 665.554 321.063 668.202 319.72" stroke="url(#paint13_linear_172_256)" stroke-width="3.291" stroke-linecap="round" stroke-linejoin="round"></path>
<path d="M673.525 404.923L669.27 393.7" stroke="url(#paint14_linear_172_256)" stroke-width="3.291" stroke-linecap="round" stroke-linejoin="round"></path>
<path d="M619.387 428.829C622.364 426.84 625.001 424.383 627.194 421.553" stroke="url(#paint15_linear_172_256)" stroke-width="3.291" stroke-linecap="round" stroke-linejoin="round"></path>
<g opacity="0.1">
<path d="M511.866 113.979C504.666 113.343 497.738 114.69 490.605 115.686C483.773 116.64 476.926 117.654 470.131 118.838C459.337 120.717 448.183 125.474 445.574 137.213C444.08 143.938 444.304 150.92 444.236 157.76C444.163 165.06 444.272 172.342 444.429 179.64C444.586 186.938 444.78 194.227 445.029 201.521C445.167 205.496 445.229 209.483 445.443 213.455C445.657 217.476 446.591 221.38 446.859 225.39C447.305 232.057 456.9 232.113 457.265 225.39C457.627 218.725 458.558 212.212 458.706 205.499C458.853 198.868 459.011 192.24 459.07 185.608C459.186 172.408 459.73 159.002 458.707 145.825C458.307 140.705 457.341 134.468 462.107 130.951C465.7 128.299 471.307 127.699 475.571 126.879C487.93 124.504 501.46 123.269 512.953 117.997C515.087 117.018 513.762 114.147 511.864 113.979H511.866Z" fill="#171717"></path>
</g>
<g opacity="0.1">
<path d="M59.6239 507.119C58.2669 516.249 59.2769 525.407 60.1139 534.57C60.9619 543.842 62.2219 553.07 63.7479 562.26C66.8829 581.135 69.7709 600.707 75.0389 619.108C85.4711 655.843 100.849 690.989 120.75 723.581C159.679 787.075 216.304 840.029 282.566 874.158C291.823 878.926 301.249 883.32 310.844 887.342C320.181 891.264 330.007 894.022 339.644 897.142C349.725 900.41 360.474 900.195 370.481 903.266C380.158 906.237 389.956 909.417 400.068 910.3C402.785 910.537 402.986 906.595 400.678 905.788C392.065 902.776 383.019 901.217 374.196 898.881C365.635 896.615 358.427 891.624 350.469 887.899C342.218 884.037 333.933 880.699 325.906 876.345C318.386 872.266 310.532 868.766 302.943 864.803C271.696 848.594 242.43 828.824 215.727 805.889C160.461 757.844 118.005 696.814 92.1779 628.289C84.9149 608.968 77.5189 589.405 73.4949 569.106C71.4449 558.764 69.8509 548.357 68.4839 537.906C67.1439 527.665 67.0139 517.161 64.5999 507.12C64.0389 504.784 60.0119 504.542 59.6279 507.12L59.6239 507.119Z" fill="#171717"></path>
</g>
<g opacity="0.1">
<path d="M493.078 523.527L493.066 523.6C492.782 525.318 493.213 527.624 495.034 528.437C513.42 536.648 534.185 539.695 554.2 539.586C564.114 539.502 574.009 538.679 583.8 537.123C588.862 536.333 593.886 535.336 598.872 534.132C603.578 532.992 609.664 531.973 612.878 528.088C615.211 525.268 614.531 520.874 610.686 519.788C606.22 518.521 601.612 520.301 597.239 521.414C592.566 522.602 587.851 523.606 583.095 524.426C573.842 525.993 564.48 526.822 555.095 526.906C535.819 527.132 517.203 524.04 498.325 520.614C496.576 520.296 494.339 520.79 493.488 522.582C493.334 522.892 493.194 523.208 493.068 523.532L493.078 523.527Z" fill="#171717"></path>
</g>
<g opacity="0.1">
<path d="M518.271 511.821C520.507 514.114 522.316 516.321 525.258 517.74C528.257 519.067 531.367 520.127 534.553 520.909C540.778 522.586 547.162 523.608 553.6 523.96C560.075 524.323 566.571 524.055 572.995 523.16C578.895 522.36 586.726 521.47 589.995 515.837C591.569 513.121 589.94 510.443 587.362 509.364C582.483 507.322 576.33 510.058 571.414 511.059C565.553 512.232 559.578 512.729 553.604 512.54C547.872 512.372 542.171 511.641 536.583 510.357C533.825 509.729 531.146 508.765 528.392 508.157C525.554 507.534 522.867 507.816 519.992 507.657C517.82 507.533 516.861 510.374 518.269 511.818L518.271 511.821Z" fill="#171717"></path>
</g>
<g opacity="0.1">
<path d="M620.819 505.016C627.008 506.445 633.771 506.161 640.109 507.321C646.357 508.463 652.519 510.021 658.818 510.882C667.137 512.015 684.649 513.287 689.024 503.92C690.454 500.86 688.748 497.455 685.224 497.29C682.44 497.16 680.632 498.341 678.05 499.242C675.476 500.128 672.792 500.657 670.074 500.812C664.753 501.015 659.428 500.555 654.222 499.442C644.166 497.537 629.434 492.814 620.039 499.019C617.812 500.49 617.925 504.347 620.823 505.019L620.819 505.016Z" fill="#171717"></path>
</g>
<g opacity="0.1">
<path d="M683.944 464.6C689.375 456.675 701.101 464.8 706.828 467.986C712.849 471.337 723.466 476.447 729.028 469.8C730.728 467.766 729.944 465.294 727.58 464.315C725.057 463.272 722.509 463.449 719.875 462.915C717.265 462.326 714.744 461.399 712.375 460.157C707.816 457.89 703.39 455.102 698.428 453.768C690.956 451.76 682.053 454.228 678.038 461.147C675.8 465.003 681.484 468.196 683.947 464.601L683.944 464.6Z" fill="#171717"></path>
</g>
<g opacity="0.1">
<path d="M463.172 594.94C470.452 602.94 481.799 602.496 491.803 601.018C503.015 599.361 513.888 596.153 525.219 595.209C536.179 594.257 547.217 594.743 558.051 596.654C563.568 597.71 569.025 599.058 574.399 600.693C579.792 602.27 585.242 604.4 590.926 603.96C593.226 603.782 595.666 601.026 593.926 598.741C587.578 590.43 575.433 587.781 565.66 585.711C554.414 583.302 542.914 582.295 531.42 582.711C520.142 583.15 509.308 585.429 498.34 587.911C492.84 589.276 487.241 590.204 481.595 590.689C476.125 591.04 470.55 590.423 465.066 590.379C464.544 590.392 464.036 590.556 463.605 590.852C463.174 591.148 462.838 591.562 462.638 592.045C462.438 592.528 462.383 593.059 462.478 593.572C462.574 594.086 462.817 594.561 463.177 594.94H463.172Z" fill="#171717"></path>
</g>
<g opacity="0.1">
<path d="M460.674 512.575C464.718 512.551 467.921 512.709 471.96 511.983C476.06 511.246 480.134 510.344 484.216 509.519C492.038 507.937 500.199 506.995 506.916 502.554C509.345 500.947 508.197 497.72 505.516 497.4C497.505 496.443 489.695 499.306 481.973 501.394C478.273 502.394 474.546 503.336 470.861 504.394C466.695 505.594 463.587 507.278 459.748 509.165C458.081 509.985 458.933 512.582 460.671 512.572L460.674 512.575Z" fill="#171717"></path>
</g>
<g opacity="0.1">
<path d="M370.491 543.049C373.121 544.754 375.54 543.198 378.091 542.1C380.915 540.732 383.933 539.808 387.039 539.359C394.594 538.551 401.089 542.483 408.19 544.282C422.235 547.838 437.969 541.482 446.103 529.672C447.77 527.251 445.027 524.672 442.609 525.128C435.96 526.381 430.172 529.719 423.709 531.678C416.484 533.866 410.558 532.172 403.6 529.906C391.508 525.966 377.458 526.22 369.329 537.389C368.938 538.049 368.732 538.801 368.732 539.568C368.732 540.334 368.938 541.086 369.329 541.746C369.599 542.274 370.002 542.722 370.499 543.046L370.491 543.049Z" fill="#171717"></path>
</g>
<g opacity="0.1">
<path d="M268.044 468.537C277.228 462 285.771 456.637 297.514 457.211C311.954 457.911 325.784 461.526 340.122 463.052C353.577 464.344 367.141 463.933 380.493 461.828C392.746 460.028 408.527 457.202 417.399 447.739C417.89 447.22 418.221 446.57 418.35 445.867C418.48 445.165 418.404 444.44 418.13 443.779C417.857 443.119 417.398 442.553 416.81 442.147C416.222 441.742 415.528 441.516 414.814 441.497C407.758 440.944 400.602 443.158 393.744 444.526C387.191 445.834 380.636 447.226 373.994 447.995C359.612 449.565 345.094 449.389 330.754 447.472C316.972 445.723 303.14 443.898 289.509 447.395C279.476 449.968 267.854 455.266 264.533 465.837C263.939 467.725 266.327 469.759 268.044 468.537V468.537Z" fill="#171717"></path>
</g>
<g opacity="0.1">
<path d="M183.341 520.113C193.765 529.237 211.1 519.65 222.401 516.694C229.508 514.833 236.936 514.555 244.162 515.879C247.699 516.536 251.167 517.524 254.519 518.831C258.254 520.243 260.769 521.837 264.862 521.215C267.211 520.858 269.107 517.522 268.202 515.333C265.42 508.607 256.428 506.246 249.773 504.862C242.52 503.404 235.053 503.36 227.783 504.73C220.183 506.077 213.163 509.33 205.966 511.976C198.74 514.632 191.313 515.243 184.044 517.449C183.778 517.527 183.537 517.672 183.344 517.871C183.15 518.07 183.012 518.315 182.941 518.583C182.871 518.851 182.871 519.133 182.942 519.401C183.012 519.669 183.151 519.914 183.344 520.113H183.341Z" fill="#171717"></path>
</g>
<g opacity="0.1">
<path d="M260.75 565.762C264.562 569.782 270.536 568.535 275.563 568.255C281.956 567.898 288.426 567.236 294.832 567.398C300.748 567.547 305.727 569.863 311.257 571.638C316.204 573.227 322.118 574.338 326.113 570.338C327.999 568.451 327.959 564.327 325.183 563.124C322.71 562.053 320.773 562.139 318.147 561.723C315.492 561.172 312.895 560.365 310.395 559.315C304.873 557.208 298.978 556.257 293.074 556.52C286.914 556.808 280.753 557.615 274.616 558.213C269.465 558.713 263.627 558.475 260.405 563.09C260.163 563.511 260.066 564 260.129 564.482C260.191 564.965 260.409 565.413 260.75 565.76V565.762Z" fill="#171717"></path>
</g>
</g>
<defs>
<linearGradient id="paint0_linear_172_256" x1="624.875" y1="342.543" x2="624.875" y2="364.584" gradientUnits="userSpaceOnUse">
<stop stop-color="#FFA3C9"></stop>
<stop offset="1" stop-color="#EF5FB3"></stop>
</linearGradient>
<linearGradient id="paint1_linear_172_256" x1="480.062" y1="331.713" x2="480.062" y2="782.325" gradientUnits="userSpaceOnUse">
<stop stop-color="#FFA3C9"></stop>
<stop offset="1" stop-color="#EF5FB3"></stop>
</linearGradient>
<linearGradient id="paint2_linear_172_256" x1="481.156" y1="671.292" x2="481.156" y2="919.813" gradientUnits="userSpaceOnUse">
<stop stop-color="#FFA3C9"></stop>
<stop offset="1" stop-color="#EF5FB3"></stop>
</linearGradient>
<linearGradient id="paint3_linear_172_256" x1="635.977" y1="145.908" x2="635.977" y2="398.241" gradientUnits="userSpaceOnUse">
<stop stop-color="#FFA3C9"></stop>
<stop offset="1" stop-color="#EF5FB3"></stop>
</linearGradient>
<linearGradient id="paint4_linear_172_256" x1="562.742" y1="437.348" x2="562.742" y2="512.416" gradientUnits="userSpaceOnUse">
<stop stop-color="#FFA3C9"></stop>
<stop offset="1" stop-color="#EF5FB3"></stop>
</linearGradient>
<linearGradient id="paint5_linear_172_256" x1="474.495" y1="229.447" x2="474.495" y2="248.21" gradientUnits="userSpaceOnUse">
<stop stop-color="#FFA3C9"></stop>
<stop offset="1" stop-color="#EF5FB3"></stop>
</linearGradient>
<linearGradient id="paint6_linear_172_256" x1="340.957" y1="312.885" x2="340.957" y2="319.33" gradientUnits="userSpaceOnUse">
<stop stop-color="#FFA3C9"></stop>
<stop offset="1" stop-color="#EF5FB3"></stop>
</linearGradient>
<linearGradient id="paint7_linear_172_256" x1="371.011" y1="283.269" x2="371.011" y2="291.552" gradientUnits="userSpaceOnUse">
<stop stop-color="#FFA3C9"></stop>
<stop offset="1" stop-color="#EF5FB3"></stop>
</linearGradient>
<linearGradient id="paint8_linear_172_256" x1="423.757" y1="304.107" x2="423.757" y2="311.96" gradientUnits="userSpaceOnUse">
<stop stop-color="#FFA3C9"></stop>
<stop offset="1" stop-color="#EF5FB3"></stop>
</linearGradient>
<linearGradient id="paint9_linear_172_256" x1="460.791" y1="267.694" x2="460.791" y2="276.194" gradientUnits="userSpaceOnUse">
<stop stop-color="#FFA3C9"></stop>
<stop offset="1" stop-color="#EF5FB3"></stop>
</linearGradient>
<linearGradient id="paint10_linear_172_256" x1="504.933" y1="302.079" x2="504.933" y2="309.779" gradientUnits="userSpaceOnUse">
<stop stop-color="#FFA3C9"></stop>
<stop offset="1" stop-color="#EF5FB3"></stop>
</linearGradient>
<linearGradient id="paint11_linear_172_256" x1="545.32" y1="267.727" x2="545.32" y2="273.067" gradientUnits="userSpaceOnUse">
<stop stop-color="#FFA3C9"></stop>
<stop offset="1" stop-color="#EF5FB3"></stop>
</linearGradient>
<linearGradient id="paint12_linear_172_256" x1="583.754" y1="309.466" x2="583.754" y2="318.4" gradientUnits="userSpaceOnUse">
<stop stop-color="#FFA3C9"></stop>
<stop offset="1" stop-color="#EF5FB3"></stop>
</linearGradient>
<linearGradient id="paint13_linear_172_256" x1="664.718" y1="319.72" x2="664.718" y2="325.14" gradientUnits="userSpaceOnUse">
<stop stop-color="#FFA3C9"></stop>
<stop offset="1" stop-color="#EF5FB3"></stop>
</linearGradient>
<linearGradient id="paint14_linear_172_256" x1="671.397" y1="393.7" x2="671.397" y2="404.923" gradientUnits="userSpaceOnUse">
<stop stop-color="#FFA3C9"></stop>
<stop offset="1" stop-color="#EF5FB3"></stop>
</linearGradient>
<linearGradient id="paint15_linear_172_256" x1="623.29" y1="421.553" x2="623.29" y2="428.829" gradientUnits="userSpaceOnUse">
<stop stop-color="#FFA3C9"></stop>
<stop offset="1" stop-color="#EF5FB3"></stop>
</linearGradient>
<clipPath id="clip0_172_256">
<rect width="852" height="884" fill="white" transform="translate(54 38)"></rect>
</clipPath>
</defs>
</svg>
